#tb 0: 1/25
#media_type 0: video
#codec_id 0: rawvideo
#dimensions 0: 150x150
#sar 0: 0/1
0,          0,          0,        1,    90000, 0x11af5588
0,          1,          1,        1,    90000, 0x528c2eb8
0,          2,          2,        1,    90000, 0xebae2d82
0,          3,          3,        1,    90000, 0xf57951ef
0,          4,          4,        1,    90000, 0xc2a84734
0,          5,          5,        1,    90000, 0x2dd74265
0,          6,          6,        1,    90000, 0x5a6980cb
0,          7,          7,        1,    90000, 0x519373e4
0,          8,          8,        1,    90000, 0xdca835fb
0,          9,          9,        1,    90000, 0xc8a46d5e
0,         10,         10,        1,    90000, 0xa01a72e3
0,         11,         11,        1,    90000, 0xacd751fa
0,         12,         12,        1,    90000, 0x464b6d39
0,         13,         13,        1,    90000, 0x56f1b22c
0,         14,         14,        1,    90000, 0x0595a6bb
0,         15,         15,        1,    90000, 0xb9418cdc
0,         16,         16,        1,    90000, 0x8b2b7bcf
0,         17,         17,        1,    90000, 0x1a026aaf
0,         18,         18,        1,    90000, 0x25443715
0,         19,         19,        1,    90000, 0x3d9231cd
0,         20,         20,        1,    90000, 0xfef153a8
0,         21,         21,        1,    90000, 0x6a7c2e7b
0,         22,         22,        1,    90000, 0x1fe92cda
0,         23,         23,        1,    90000, 0x30554ff8
0,         24,         24,        1,    90000, 0x57e544d9
0,         25,         25,        1,    90000, 0x4c2d3b69
0,         26,         26,        1,    90000, 0x22c26e0c
0,         27,         27,        1,    90000, 0x254bb498
0,         28,         28,        1,    90000, 0xcd02a4ac
0,         29,         29,        1,    90000, 0x54447feb
0,         30,         30,        1,    90000, 0x9dc87b6e
0,         31,         31,        1,    90000, 0xfb49553b
0,         32,         32,        1,    90000, 0x05316fbe
0,         33,         33,        1,    90000, 0xd796da15
0,         34,         34,        1,    90000, 0x36064111
0,         35,         35,        1,    90000, 0x470cb58e
0,         36,         36,        1,    90000, 0xf0ba8054
0,         37,         37,        1,    90000, 0x3f496ff8
0,         38,         38,        1,    90000, 0xe3a43cff
0,         39,         39,        1,    90000, 0xacdd36ce
